<?xml version="1.0" standalone="no"?>
<svg xmlns:xlink="http://www.w3.org/1999/xlink" id="wave" style="transform:rotate(0deg); transition: 0.3s" viewBox="0 0 1440 490" version="1.1" xmlns="http://www.w3.org/2000/svg"><defs><linearGradient id="sw-gradient-0" x1="0" x2="0" y1="1" y2="0"><stop stop-color="rgba(255, 179, 86, 1)" offset="0%"/><stop stop-color="rgba(255, 179, 86, 1)" offset="100%"/></linearGradient></defs><path style="transform:translate(0, 0px); opacity:1" fill="url(#sw-gradient-0)" d="M0,0L120,24.5C240,49,480,98,720,171.5C960,245,1200,343,1440,383.8C1680,425,1920,408,2160,408.3C2400,408,2640,425,2880,375.7C3120,327,3360,212,3600,138.8C3840,65,4080,33,4320,32.7C4560,33,4800,65,5040,130.7C5280,196,5520,294,5760,343C6000,392,6240,392,6480,375.7C6720,359,6960,327,7200,285.8C7440,245,7680,196,7920,220.5C8160,245,8400,343,8640,318.5C8880,294,9120,147,9360,106.2C9600,65,9840,131,10080,179.7C10320,229,10560,261,10800,253.2C11040,245,11280,196,11520,212.3C11760,229,12000,310,12240,343C12480,376,12720,359,12960,367.5C13200,376,13440,408,13680,400.2C13920,392,14160,343,14400,318.5C14640,294,14880,294,15120,285.8C15360,278,15600,261,15840,220.5C16080,180,16320,114,16560,89.8C16800,65,17040,82,17160,89.8L17280,98L17280,490L17160,490C17040,490,16800,490,16560,490C16320,490,16080,490,15840,490C15600,490,15360,490,15120,490C14880,490,14640,490,14400,490C14160,490,13920,490,13680,490C13440,490,13200,490,12960,490C12720,490,12480,490,12240,490C12000,490,11760,490,11520,490C11280,490,11040,490,10800,490C10560,490,10320,490,10080,490C9840,490,9600,490,9360,490C9120,490,8880,490,8640,490C8400,490,8160,490,7920,490C7680,490,7440,490,7200,490C6960,490,6720,490,6480,490C6240,490,6000,490,5760,490C5520,490,5280,490,5040,490C4800,490,4560,490,4320,490C4080,490,3840,490,3600,490C3360,490,3120,490,2880,490C2640,490,2400,490,2160,490C1920,490,1680,490,1440,490C1200,490,960,490,720,490C480,490,240,490,120,490L0,490Z"/></svg>