<?xml version="1.0" standalone="no"?>
<svg xmlns:xlink="http://www.w3.org/1999/xlink" id="wave" style="transform:rotate(0deg); transition: 0.3s" viewBox="0 0 1440 490" version="1.1" xmlns="http://www.w3.org/2000/svg"><defs><linearGradient id="sw-gradient-0" x1="0" x2="0" y1="1" y2="0"><stop stop-color="rgba(247, 247, 235, 1)" offset="0%"/><stop stop-color="rgba(247, 247, 235, 1)" offset="100%"/></linearGradient></defs><path style="transform:translate(0, 0px); opacity:1" fill="url(#sw-gradient-0)" d="M0,343L80,351.2C160,359,320,376,480,326.7C640,278,800,163,960,122.5C1120,82,1280,114,1440,171.5C1600,229,1760,310,1920,285.8C2080,261,2240,131,2400,130.7C2560,131,2720,261,2880,269.5C3040,278,3200,163,3360,155.2C3520,147,3680,245,3840,261.3C4000,278,4160,212,4320,204.2C4480,196,4640,245,4800,220.5C4960,196,5120,98,5280,73.5C5440,49,5600,98,5760,114.3C5920,131,6080,114,6240,122.5C6400,131,6560,163,6720,212.3C6880,261,7040,327,7200,367.5C7360,408,7520,425,7680,375.7C7840,327,8000,212,8160,187.8C8320,163,8480,229,8640,261.3C8800,294,8960,294,9120,277.7C9280,261,9440,229,9600,228.7C9760,229,9920,261,10080,228.7C10240,196,10400,98,10560,89.8C10720,82,10880,163,11040,220.5C11200,278,11360,310,11440,326.7L11520,343L11520,490L11440,490C11360,490,11200,490,11040,490C10880,490,10720,490,10560,490C10400,490,10240,490,10080,490C9920,490,9760,490,9600,490C9440,490,9280,490,9120,490C8960,490,8800,490,8640,490C8480,490,8320,490,8160,490C8000,490,7840,490,7680,490C7520,490,7360,490,7200,490C7040,490,6880,490,6720,490C6560,490,6400,490,6240,490C6080,490,5920,490,5760,490C5600,490,5440,490,5280,490C5120,490,4960,490,4800,490C4640,490,4480,490,4320,490C4160,490,4000,490,3840,490C3680,490,3520,490,3360,490C3200,490,3040,490,2880,490C2720,490,2560,490,2400,490C2240,490,2080,490,1920,490C1760,490,1600,490,1440,490C1280,490,1120,490,960,490C800,490,640,490,480,490C320,490,160,490,80,490L0,490Z"/></svg>